<svg xmlns="http://www.w3.org/2000/svg" width="128" height="128" viewBox="0 0 128 128" role="img" aria-label="YouTube AI Subtitle">
  <defs>
    <linearGradient id="bg" x1="20" y1="10" x2="108" y2="118" gradientUnits="userSpaceOnUse">
      <stop offset="0" stop-color="#2f8066"/>
      <stop offset="1" stop-color="#123f35"/>
    </linearGradient>
    <filter id="shadow" x="-20%" y="-20%" width="140%" height="140%">
      <feDropShadow dx="0" dy="8" stdDeviation="8" flood-color="#09261f" flood-opacity=".32"/>
    </filter>
  </defs>
  <rect width="128" height="128" rx="26" fill="url(#bg)"/>
  <path d="M25 43.5C25 37.1 30.1 32 36.5 32h55.8c6.4 0 11.5 5.1 11.5 11.5v41c0 6.4-5.1 11.5-11.5 11.5H36.5C30.1 96 25 90.9 25 84.5v-41Z" fill="#f7fff8" filter="url(#shadow)"/>
  <path d="M55 50.5v27l22-13.5-22-13.5Z" fill="#1f6e58"/>
  <rect x="38" y="76" width="52" height="6.5" rx="3.25" fill="#173f35"/>
  <rect x="38" y="86" width="35" height="6.5" rx="3.25" fill="#2f8066"/>
  <path d="M34 34.5 44.5 24l10.5 10.5" fill="none" stroke="#d6f0e2" stroke-width="6" stroke-linecap="round" stroke-linejoin="round"/>
  <path d="M94 93.5 83.5 104 73 93.5" fill="none" stroke="#d6f0e2" stroke-width="6" stroke-linecap="round" stroke-linejoin="round"/>
</svg>
